<svg xmlns="http://www.w3.org/2000/svg" viewBox="0 0 128 128"><defs><style>.cls-1{fill:#d6e1ea;}.Graphic-Style-5{fill:#fff;}.Graphic-Style-3{fill:#a6caff;}.cls-2{fill:none;stroke:#2a457f;stroke-linecap:round;stroke-linejoin:round;stroke-width:4px;}</style></defs><title>time</title><g id="circles"><circle class="cls-1" cx="64" cy="64" r="54"/></g><g id="icons"><path class="Graphic-Style-5" d="M95,106V94A30.088,30.088,0,0,0,65,64h0A30.088,30.088,0,0,0,35,94v12Z"/><rect class="Graphic-Style-3" x="26" y="10" width="76" height="12" rx="6" ry="6"/><rect class="Graphic-Style-3" x="26" y="106" width="76" height="12" rx="6" ry="6"/><path class="Graphic-Style-5" d="M95,22V34A30.088,30.088,0,0,1,65,64h0A30.088,30.088,0,0,1,35,34V22Z"/><path class="cls-2" d="M43,22H32a6,6,0,0,1-6-6,6.009,6.009,0,0,1,6-6H77"/><path class="cls-2" d="M87,10h9a6,6,0,0,1,6,6,6.009,6.009,0,0,1-6,6H53"/><path class="cls-2" d="M80,106H96a6,6,0,0,1,6,6,6.009,6.009,0,0,1-6,6H49"/><path class="cls-2" d="M39,118H32a6,6,0,0,1-6-6,6.009,6.009,0,0,1,6-6H70"/><path class="cls-2" d="M43,22H35V34a29.856,29.856,0,0,0,6.04,18,31.2,31.2,0,0,0,2.77,3.19A30.022,30.022,0,0,0,93.61,43"/><polyline class="cls-2" points="95 33 95 22 53 22"/><path class="cls-2" d="M70,106H35V94a30,30,0,0,1,60,0v12H80"/><path class="cls-2" d="M57.18,81.18A68.882,68.882,0,0,1,65,76s22,12,22,26v4H80"/><path class="cls-2" d="M70,106H43v-4c0-5.61,3.54-10.91,7.77-15.23"/><line class="cls-2" x1="88.96" y1="52" x2="41.04" y2="52"/></g></svg>